<svg width="265" height="62" viewBox="0 0 265 62" fill="none" xmlns="http://www.w3.org/2000/svg">
<path d="M22.6665 56.0001C35.6349 56.0001 44.6665 46.0102 44.6665 33.0001C44.6665 19.99 35.6349 10.0001 22.6665 10.0001C9.69808 10.0001 0.666504 19.99 0.666504 33.0001C0.666504 46.0102 9.69808 56.0001 22.6665 56.0001Z" fill="#20CC6D"/>
<path d="M88.6665 28.2339C88.6665 17.9575 82.0702 10.0001 72.47 10.0001C67.8726 10.0001 64.0528 11.67 61.3485 14.5772V13.1574C61.3485 11.6024 60.4696 10.8001 58.9146 10.8001H53.1004C51.5454 10.8001 50.6665 11.6024 50.6665 13.1574V59.5607C50.6665 61.1157 51.5454 62.0001 53.1004 62.0001H58.9146C60.4696 62.0001 61.3485 61.1157 61.3485 59.5607V41.8906C64.0528 44.7978 67.8726 46.8001 72.47 46.8001C82.0702 46.8001 88.6665 38.5103 88.6665 28.2339ZM78.149 28.2339C78.149 33.2369 74.4644 37.0229 69.7657 37.0229C65.0669 37.0229 61.3485 33.2369 61.3485 28.2339C61.3485 23.2647 65.0669 19.4449 69.7657 19.4449C74.4644 19.4449 78.149 23.2647 78.149 28.2339Z" fill="black"/>
<path d="M90.6665 28.2339C90.6665 38.5103 97.4284 46.8001 107.062 46.8001C111.66 46.8001 115.446 44.7978 118.184 41.8906V43.3104C118.184 44.8654 119.063 46.0001 120.618 46.0001H126.233C127.788 46.0001 128.667 44.8654 128.667 43.3104V13.1574C128.667 11.6024 127.788 10.8001 126.233 10.8001H120.618C119.063 10.8001 118.184 11.6024 118.184 13.1574V14.5772C115.446 11.67 111.66 10.0001 107.062 10.0001C97.4284 10.0001 90.6665 17.9575 90.6665 28.2339ZM101.383 28.2339C101.383 23.2647 105.034 19.4449 109.733 19.4449C114.466 19.4449 118.184 23.2647 118.184 28.2339C118.184 33.2369 114.466 37.0229 109.733 37.0229C105.034 37.0229 101.383 33.2369 101.383 28.2339Z" fill="black"/>
<path d="M139.09 62.0001H145.377C146.763 62.0001 147.676 62.0002 148.149 60.034L164.462 13.5292C164.602 13.1341 164.667 12.8418 164.667 12.4512C164.667 11.3685 163.964 10.8001 162.583 10.8001H156.363C154.944 10.8001 154.031 11.3996 153.625 12.7517L147.676 31.9523L141.828 12.7517C141.422 11.3996 140.509 10.8001 139.09 10.8001H132.87C131.472 10.8001 130.667 11.3837 130.667 12.4897C130.667 12.8418 130.741 13.1498 130.875 13.5292L142.402 46.0001L137.197 59.1551C136.521 60.8791 137.264 62.0001 139.09 62.0001Z" fill="black"/>
<path d="M187.419 10.0001C183.43 10.0001 179.884 11.5348 177.518 14.4081V13.1574C177.518 11.6024 176.639 10.8001 175.084 10.8001H169.1C167.545 10.8001 166.667 11.6024 166.667 13.1574V43.3104C166.667 44.8654 167.545 46.0001 169.1 46.0001H175.084C176.639 46.0001 177.518 44.8654 177.518 43.3104V26.8141C177.518 22.014 180.658 19.4449 184.174 19.4449C187.318 19.4449 189.819 22.352 189.819 25.4958V43.3104C189.819 44.8654 190.698 46.0001 192.253 46.0001H198.236C199.791 46.0001 200.667 44.8654 200.667 43.3104V23.7718C200.667 15.4899 195.093 10.0001 187.419 10.0001Z" fill="black"/>
<path d="M256.996 33.0678V20.121H262.167C263.721 20.121 264.667 19.2421 264.667 17.6871V13.1574C264.667 11.6024 263.721 10.8001 262.167 10.8001H256.996V2.24945C256.996 0.880085 256.197 0.0122059 254.884 0.000127758C254.717 -0.00140964 254.541 0.0109187 254.358 0.0376371L248.307 0.897295C246.82 1.13392 246.076 2.01282 246.076 3.50019V10.8001H243.267C241.712 10.8001 240.667 11.6024 240.667 13.1574V17.6871C240.667 19.2421 241.712 20.121 243.267 20.121H246.076V34.1834C246.076 42.0258 250.673 46.8001 258.144 46.8001C259.969 46.8001 261.727 46.5072 263.214 46.0001C264.499 45.5607 264.667 44.3245 264.667 42.9724V39.4906C264.667 37.868 264.127 37.0905 262.505 37.1581H261.457C258.245 37.1581 256.996 35.8736 256.996 33.0678Z" fill="black"/>
<path d="M213.751 31.2425H237.937C239.391 31.2425 240.411 30.5326 240.546 29.079C240.614 28.6058 240.667 28.0987 240.667 27.6593C240.667 17.8224 232.783 10.0001 222.067 10.0001C211.148 10.0001 202.667 17.9576 202.667 28.2339C202.667 38.5103 210.946 46.8001 223.047 46.8001C229.267 46.8001 234.065 44.2908 237.648 40.9442C238.797 39.8625 238.73 38.6455 237.715 37.4962L236.262 35.8736C235.248 34.7243 234.132 34.6905 232.848 35.5694C230.143 37.4624 226.935 38.3751 223.183 38.3751C217.977 38.3751 214.529 35.6708 213.751 31.2425ZM221.932 18.0928C225.955 18.0928 228.893 20.5267 229.738 24.3803H213.92C214.968 20.4591 217.977 18.0928 221.932 18.0928Z" fill="black"/>
</svg>
